<svg width="110" height="110" viewBox="0 0 110 110" fill="none" xmlns="http://www.w3.org/2000/svg">
<mask id="mask0_2029_173" style="mask-type:luminance" maskUnits="userSpaceOnUse" x="0" y="0" width="110" height="110">
<path d="M110 55C110 24.6243 85.3757 0 55 0C24.6243 0 0 24.6243 0 55C0 85.3757 24.6243 110 55 110C85.3757 110 110 85.3757 110 55Z" fill="white"/>
</mask>
<g mask="url(#mask0_2029_173)">
<path d="M110 55C110 24.6243 85.3757 0 55 0C24.6243 0 0 24.6243 0 55C0 85.3757 24.6243 110 55 110C85.3757 110 110 85.3757 110 55Z" fill="black"/>
<g opacity="0.24" filter="url(#filter0_f_2029_173)">
<path d="M144.375 92.4402C144.375 75.1484 104.36 61.1305 55 61.1305C5.63955 61.1305 -34.375 75.1484 -34.375 92.4402C-34.375 109.732 5.63955 123.75 55 123.75C104.36 123.75 144.375 109.732 144.375 92.4402Z" fill="black"/>
</g>
</g>
<path d="M33.6418 79.6868L47.5661 60.7977L61.795 60.5888L75.4941 79.1208L62.2307 86.7072L56.1596 71.8125L53.1469 71.8664L46.9359 86.8283L33.6418 79.6868Z" fill="white"/>
<path d="M62.5072 59.0528L85.7988 61.2184L85.6915 46.1077L69.4695 48.6137L67.9894 46.0731L78.1056 33.0868L65.0764 25.6491L55.4764 46.9846L62.5072 59.0528Z" fill="white"/>
<path d="M53.7253 46.7116L44.3546 25.6575L31.2762 33.5615L41.2429 46.1864L39.7107 48.7806L23.5221 46.8704L23.2281 61.7874L46.5284 58.9868L53.7253 46.7116Z" fill="white"/>
<defs>
<filter id="filter0_f_2029_173" x="-49.0466" y="46.4589" width="208.093" height="91.9626" filterUnits="userSpaceOnUse" color-interpolation-filters="sRGB">
<feFlood flood-opacity="0" result="BackgroundImageFix"/>
<feBlend mode="normal" in="SourceGraphic" in2="BackgroundImageFix" result="shape"/>
<feGaussianBlur stdDeviation="7.33579" result="effect1_foregroundBlur_2029_173"/>
</filter>
</defs>
</svg>
