<svg width="512" height="123" viewBox="0 0 512 123" fill="none" xmlns="http://www.w3.org/2000/svg">
<mask id="mask0_2029_172" style="mask-type:luminance" maskUnits="userSpaceOnUse" x="0" y="0" width="110" height="110">
<path d="M110 55C110 24.6243 85.3757 0 55 0C24.6243 0 0 24.6243 0 55C0 85.3757 24.6243 110 55 110C85.3757 110 110 85.3757 110 55Z" fill="white"/>
</mask>
<g mask="url(#mask0_2029_172)">
<path d="M110 55C110 24.6243 85.3757 0 55 0C24.6243 0 0 24.6243 0 55C0 85.3757 24.6243 110 55 110C85.3757 110 110 85.3757 110 55Z" fill="black"/>
<g opacity="0.24" filter="url(#filter0_f_2029_172)">
<path d="M144.375 92.4402C144.375 75.1484 104.36 61.1305 55 61.1305C5.63955 61.1305 -34.375 75.1484 -34.375 92.4402C-34.375 109.732 5.63955 123.75 55 123.75C104.36 123.75 144.375 109.732 144.375 92.4402Z" fill="black"/>
</g>
</g>
<path d="M33.6418 79.6868L47.5661 60.7977L61.795 60.5888L75.4941 79.1208L62.2307 86.7072L56.1596 71.8125L53.1469 71.8664L46.9359 86.8283L33.6418 79.6868Z" fill="white"/>
<path d="M62.5072 59.0528L85.7988 61.2184L85.6915 46.1077L69.4695 48.6137L67.9894 46.0731L78.1056 33.0868L65.0764 25.6491L55.4764 46.9846L62.5072 59.0528Z" fill="white"/>
<path d="M53.7253 46.7116L44.3546 25.6575L31.2762 33.5615L41.2429 46.1864L39.7107 48.7806L23.5221 46.8704L23.2281 61.7874L46.5284 58.9868L53.7253 46.7116Z" fill="white"/>
<path d="M179.367 34.9922C179.003 31.5807 177.466 28.9245 174.758 27.0234C172.076 25.1224 168.586 24.1719 164.289 24.1719C161.268 24.1719 158.677 24.6276 156.516 25.5391C154.354 26.4505 152.701 27.6875 151.555 29.25C150.409 30.8125 149.823 32.5964 149.797 34.6016C149.797 36.2682 150.174 37.7135 150.93 38.9375C151.711 40.1615 152.766 41.2031 154.094 42.0625C155.422 42.8958 156.893 43.599 158.508 44.1719C160.122 44.7448 161.75 45.2266 163.391 45.6172L170.891 47.4922C173.911 48.1953 176.815 49.1458 179.602 50.3437C182.414 51.5417 184.927 53.0521 187.141 54.875C189.38 56.6979 191.151 58.8984 192.453 61.4766C193.755 64.0547 194.406 67.0755 194.406 70.5391C194.406 75.2266 193.208 79.3542 190.813 82.9219C188.417 86.4635 184.953 89.237 180.422 91.2422C175.917 93.2214 170.461 94.2109 164.055 94.2109C157.831 94.2109 152.427 93.2474 147.844 91.3203C143.286 89.3932 139.719 86.5807 137.141 82.8828C134.589 79.1849 133.208 74.6797 133 69.3672H147.258C147.466 72.1536 148.326 74.4714 149.836 76.3203C151.346 78.1693 153.313 79.5495 155.734 80.4609C158.182 81.3724 160.917 81.8281 163.938 81.8281C167.089 81.8281 169.849 81.3594 172.219 80.4219C174.615 79.4583 176.49 78.1302 177.844 76.4375C179.198 74.7187 179.888 72.7135 179.914 70.4219C179.888 68.3385 179.276 66.6198 178.078 65.2656C176.88 63.8854 175.201 62.7396 173.039 61.8281C170.904 60.8906 168.404 60.0573 165.539 59.3281L156.438 56.9844C149.849 55.2917 144.641 52.7266 140.813 49.2891C137.01 45.8255 135.109 41.2292 135.109 35.5C135.109 30.7865 136.385 26.6589 138.938 23.1172C141.516 19.5755 145.018 16.8281 149.445 14.875C153.872 12.8958 158.885 11.9062 164.484 11.9062C170.161 11.9062 175.135 12.8958 179.406 14.875C183.703 16.8281 187.076 19.5495 189.523 23.0391C191.971 26.5026 193.234 30.487 193.312 34.9922H179.367ZM236.662 33V43.9375H202.17V33H236.662ZM210.686 18.625H224.826V74.9531C224.826 76.8542 225.113 78.3125 225.686 79.3281C226.285 80.3177 227.066 80.9948 228.029 81.3594C228.993 81.724 230.061 81.9062 231.232 81.9062C232.118 81.9062 232.925 81.8411 233.654 81.7109C234.41 81.5807 234.982 81.4635 235.373 81.3594L237.756 92.4141C237.001 92.6745 235.92 92.9609 234.514 93.2734C233.133 93.5859 231.441 93.7682 229.436 93.8203C225.894 93.9245 222.704 93.3906 219.865 92.2187C217.027 91.0208 214.774 89.1719 213.107 86.6719C211.467 84.1719 210.66 81.0469 210.686 77.2969V18.625ZM248.488 93V33H262.199V43H262.824C263.918 39.5365 265.793 36.8672 268.449 34.9922C271.132 33.0911 274.191 32.1406 277.629 32.1406C278.41 32.1406 279.283 32.1797 280.246 32.2578C281.236 32.3099 282.056 32.401 282.707 32.5312V45.5391C282.108 45.3307 281.158 45.1484 279.855 44.9922C278.579 44.8099 277.342 44.7187 276.145 44.7187C273.566 44.7187 271.249 45.2786 269.191 46.3984C267.16 47.4922 265.559 49.0156 264.387 50.9687C263.215 52.9219 262.629 55.1745 262.629 57.7266V93H248.488ZM308.293 94.2109C304.491 94.2109 301.066 93.5339 298.02 92.1797C294.999 90.7995 292.603 88.7682 290.832 86.0859C289.087 83.4036 288.215 80.0964 288.215 76.1641C288.215 72.7786 288.84 69.9792 290.09 67.7656C291.34 65.5521 293.046 63.7812 295.207 62.4531C297.368 61.125 299.803 60.1224 302.512 59.4453C305.246 58.7422 308.072 58.2344 310.988 57.9219C314.504 57.5573 317.355 57.2318 319.543 56.9453C321.73 56.6328 323.319 56.1641 324.309 55.5391C325.324 54.888 325.832 53.8854 325.832 52.5312V52.2969C325.832 49.3542 324.96 47.0755 323.215 45.4609C321.47 43.8464 318.957 43.0391 315.676 43.0391C312.212 43.0391 309.465 43.7943 307.434 45.3047C305.428 46.8151 304.074 48.599 303.371 50.6562L290.168 48.7812C291.21 45.1354 292.928 42.0885 295.324 39.6406C297.72 37.1667 300.65 35.3177 304.113 34.0937C307.577 32.8438 311.405 32.2188 315.598 32.2188C318.488 32.2188 321.366 32.5573 324.23 33.2344C327.095 33.9115 329.712 35.0312 332.082 36.5937C334.452 38.1302 336.353 40.2266 337.785 42.8828C339.243 45.5391 339.973 48.8594 339.973 52.8437V93H326.379V84.7578H325.91C325.051 86.4245 323.84 87.987 322.277 89.4453C320.741 90.8776 318.801 92.0365 316.457 92.9219C314.139 93.7813 311.418 94.2109 308.293 94.2109ZM311.965 83.8203C314.803 83.8203 317.264 83.2604 319.348 82.1406C321.431 80.9948 323.033 79.4844 324.152 77.6094C325.298 75.7344 325.871 73.6901 325.871 71.4766V64.4062C325.428 64.7708 324.673 65.1094 323.605 65.4219C322.564 65.7344 321.392 66.0078 320.09 66.2422C318.788 66.4766 317.499 66.6849 316.223 66.8672C314.947 67.0495 313.84 67.2057 312.902 67.3359C310.793 67.6224 308.905 68.0911 307.238 68.7422C305.572 69.3932 304.257 70.3047 303.293 71.4766C302.329 72.6224 301.848 74.1068 301.848 75.9297C301.848 78.5339 302.798 80.5 304.699 81.8281C306.6 83.1562 309.022 83.8203 311.965 83.8203ZM384.152 33V43.9375H349.66V33H384.152ZM358.176 18.625H372.316V74.9531C372.316 76.8542 372.603 78.3125 373.176 79.3281C373.775 80.3177 374.556 80.9948 375.52 81.3594C376.483 81.724 377.551 81.9062 378.723 81.9062C379.608 81.9062 380.415 81.8411 381.145 81.7109C381.9 81.5807 382.473 81.4635 382.863 81.3594L385.246 92.4141C384.491 92.6745 383.41 92.9609 382.004 93.2734C380.624 93.5859 378.931 93.7682 376.926 93.8203C373.384 93.9245 370.194 93.3906 367.355 92.2187C364.517 91.0208 362.264 89.1719 360.598 86.6719C358.957 84.1719 358.15 81.0469 358.176 77.2969V18.625ZM434.221 67.7656V33H448.361V93H434.65V82.3359H434.025C432.671 85.6953 430.445 88.4427 427.346 90.5781C424.273 92.7135 420.484 93.7813 415.979 93.7813C412.046 93.7813 408.57 92.9089 405.549 91.1641C402.554 89.3932 400.21 86.8281 398.518 83.4688C396.825 80.0833 395.979 75.9948 395.979 71.2031V33H410.119V69.0156C410.119 72.8177 411.161 75.8385 413.244 78.0781C415.327 80.3177 418.062 81.4375 421.447 81.4375C423.531 81.4375 425.549 80.9297 427.502 79.9141C429.455 78.8984 431.057 77.388 432.307 75.3828C433.583 73.3516 434.221 70.8125 434.221 67.7656ZM510.324 48.8594L497.434 50.2656C497.069 48.9635 496.431 47.7396 495.52 46.5938C494.634 45.4479 493.436 44.5234 491.926 43.8203C490.415 43.1172 488.566 42.7656 486.379 42.7656C483.436 42.7656 480.962 43.4036 478.957 44.6797C476.978 45.9557 476.001 47.6094 476.027 49.6406C476.001 51.3854 476.639 52.8047 477.941 53.8984C479.27 54.9922 481.457 55.8906 484.504 56.5938L494.738 58.7812C500.415 60.0052 504.634 61.9453 507.395 64.6016C510.181 67.2578 511.587 70.7344 511.613 75.0312C511.587 78.8073 510.48 82.1406 508.293 85.0312C506.132 87.8958 503.124 90.1354 499.27 91.75C495.415 93.3646 490.988 94.1719 485.988 94.1719C478.645 94.1719 472.733 92.6354 468.254 89.5625C463.775 86.4635 461.105 82.1536 460.246 76.6328L474.035 75.3047C474.66 78.013 475.988 80.0573 478.02 81.4375C480.051 82.8177 482.694 83.5078 485.949 83.5078C489.309 83.5078 492.004 82.8177 494.035 81.4375C496.092 80.0573 497.121 78.3516 497.121 76.3203C497.121 74.6016 496.457 73.1823 495.129 72.0625C493.827 70.9427 491.796 70.0833 489.035 69.4844L478.801 67.3359C473.046 66.138 468.788 64.1198 466.027 61.2812C463.267 58.4167 461.9 54.7969 461.926 50.4219C461.9 46.724 462.902 43.5208 464.934 40.8125C466.991 38.0781 469.842 35.9687 473.488 34.4844C477.16 32.974 481.392 32.2188 486.184 32.2188C493.215 32.2188 498.749 33.7161 502.785 36.7109C506.848 39.7057 509.361 43.7552 510.324 48.8594Z" fill="black"/>
<defs>
<filter id="filter0_f_2029_172" x="-49.0466" y="46.4589" width="208.093" height="91.9626" filterUnits="userSpaceOnUse" color-interpolation-filters="sRGB">
<feFlood flood-opacity="0" result="BackgroundImageFix"/>
<feBlend mode="normal" in="SourceGraphic" in2="BackgroundImageFix" result="shape"/>
<feGaussianBlur stdDeviation="7.33579" result="effect1_foregroundBlur_2029_172"/>
</filter>
</defs>
</svg>
